<svg width="451" height="383" viewBox="0 0 451 383" fill="none" xmlns="http://www.w3.org/2000/svg">
<path d="M401.951 263.143C391.391 258.374 389.784 246.895 385.422 240.927C381.06 234.958 370.5 231.285 370.5 231.285C370.5 231.285 380.601 223.48 396.671 225.316C404.226 226.179 409.902 229.58 414.537 233.274C412.153 226.359 414.573 222.374 410.445 215.797C405.624 208.115 396.212 203.966 390.931 191.209C385.651 178.452 390.931 167.005 390.931 167.005C390.931 167.005 392.538 171.596 398.966 176.188C404.712 180.292 420.908 180.922 430.513 193.304C425.549 123.429 376.97 85.243 343.358 65.324C314.486 48.215 295.844 12.507 217.84 17.671C139.836 22.846 122.47 72.888 103.143 110.77C92.444 131.741 68.254 136.381 47.852 150.81C62.953 146.859 72.529 154.146 83.905 156.445C97.539 159.2 99.681 149.587 111.925 149.649C124.169 149.711 128.76 153.996 128.76 153.996C128.76 153.996 116.516 152.159 112.537 162.567C108.558 172.974 103.66 176.883 91.416 175.235C79.172 173.587 75.628 174.476 69.135 180.307C62.643 186.137 47.644 181.852 39.073 183.994C33.995 185.263 27.092 194.268 22.308 201.397C26.173 198.269 31.465 194.813 38.594 191.632C58.49 182.755 83.904 198.993 83.904 198.993C83.904 198.993 63.867 203.584 52.235 211.543C40.603 219.502 32.339 211.849 24.38 214.604C20.394 215.984 17.176 217.382 14.956 218.434C14.954 218.465 14.951 218.495 14.949 218.526C13.353 243.274 22.706 265.247 38.593 284.081C77.493 330.191 155.572 357.51 208.132 360.778C263.102 364.185 359.576 343.765 405.386 282.913C409.441 277.53 413.092 271.825 416.288 265.797C411.709 265.772 406.438 265.169 401.951 263.143Z" fill="#A8B2F4"/>
<path d="M185.753 146.072C200.437 139.868 207.311 122.936 201.107 108.252C194.904 93.5687 177.971 86.6944 163.288 92.8981C148.605 99.1017 141.73 116.034 147.934 130.718C154.138 145.401 171.07 152.275 185.753 146.072Z" fill="#7C84D5"/>
<path d="M373.379 101.099C379.166 101.099 383.857 96.4078 383.857 90.621C383.857 84.8342 379.166 80.143 373.379 80.143C367.592 80.143 362.901 84.8342 362.901 90.621C362.901 96.4078 367.592 101.099 373.379 101.099Z" fill="#7C84D5"/>
<path d="M405.389 282.912C359.579 343.764 263.105 364.184 208.135 360.777C155.575 357.509 77.496 330.19 38.596 284.08C53.413 267.656 91.295 234.391 161.2 225.039C255.178 212.462 320.679 287.08 391.698 283.138C396.475 282.869 401.039 282.805 405.389 282.912Z" fill="#7C84D5"/>
<path d="M100.753 88.95C109.477 62.779 88.815 74.869 81.01 91.551C73.205 108.234 58.512 110.067 58.512 119.481C58.512 128.895 92.029 115.121 100.753 88.95Z" stroke="#7C84D5" stroke-miterlimit="10"/>
<path d="M339.967 56.112C339.967 56.112 315.632 35.46 305.761 28.802C295.889 22.144 300.251 13.191 322.864 23.522C345.477 33.853 355.119 53.801 352.134 57.946C349.15 62.09 339.967 56.112 339.967 56.112Z" stroke="#7C84D5" stroke-miterlimit="10"/>
<path d="M114.143 117.914C114.143 118.78 113.441 119.482 112.575 119.482C111.709 119.482 111.007 118.78 111.007 117.914C111.007 117.048 111.709 116.346 112.575 116.346C113.441 116.346 114.143 117.048 114.143 117.914Z" fill="#5661AF"/>
<path d="M127.305 120.877C127.305 121.743 126.603 122.445 125.737 122.445C124.871 122.445 124.169 121.743 124.169 120.877C124.169 120.011 124.871 119.309 125.737 119.309C126.603 119.309 127.305 120.011 127.305 120.877Z" fill="#5661AF"/>
<path d="M171.293 74.036C171.293 74.902 170.591 75.604 169.725 75.604C168.859 75.604 168.157 74.902 168.157 74.036C168.157 73.17 168.859 72.468 169.725 72.468C170.591 72.468 171.293 73.17 171.293 74.036Z" fill="#5661AF"/>
<path d="M376.515 213.065C376.515 213.931 375.813 214.633 374.947 214.633C374.081 214.633 373.379 213.931 373.379 213.065C373.379 212.199 374.081 211.497 374.947 211.497C375.813 211.497 376.515 212.199 376.515 213.065Z" fill="#5661AF"/>
<path d="M381.855 208.818C381.855 209.684 381.153 210.386 380.287 210.386C379.421 210.386 378.719 209.684 378.719 208.818C378.719 207.952 379.421 207.25 380.287 207.25C381.153 207.25 381.855 207.952 381.855 208.818Z" fill="#5661AF"/>
<path d="M121.644 115.351C123.039 115.351 124.169 114.221 124.169 112.826C124.169 111.431 123.039 110.301 121.644 110.301C120.249 110.301 119.119 111.431 119.119 112.826C119.119 114.221 120.249 115.351 121.644 115.351Z" fill="#5661AF"/>
<path d="M388.024 132.462C389.419 132.462 390.549 131.332 390.549 129.937C390.549 128.542 389.419 127.412 388.024 127.412C386.629 127.412 385.499 128.542 385.499 129.937C385.499 131.332 386.629 132.462 388.024 132.462Z" fill="#5661AF"/>
<path d="M119.119 205.872C119.119 207.679 117.654 209.144 115.847 209.144C114.04 209.144 112.575 207.679 112.575 205.872C112.575 204.065 114.04 202.6 115.847 202.6C117.654 202.601 119.119 204.065 119.119 205.872Z" stroke="white" stroke-miterlimit="10"/>
<path d="M304.054 66.34C304.054 68.147 302.589 69.612 300.782 69.612C298.975 69.612 297.51 68.147 297.51 66.34C297.51 64.533 298.975 63.068 300.782 63.068C302.589 63.068 304.054 64.533 304.054 66.34Z" stroke="white" stroke-miterlimit="10"/>
<path d="M144.066 65.5707C149.425 63.458 152.058 57.4002 149.945 52.0404C147.832 46.6805 141.775 44.0482 136.415 46.1609C131.055 48.2736 128.423 54.3313 130.535 59.6912C132.648 65.0511 138.706 67.6834 144.066 65.5707Z" stroke="white" stroke-miterlimit="10"/>
<path d="M430.97 165.603C441.901 161.144 447.147 148.668 442.688 137.737C438.229 126.806 425.753 121.56 414.822 126.019C403.892 130.478 398.645 142.953 403.104 153.884C407.563 164.815 420.039 170.062 430.97 165.603Z" stroke="white" stroke-miterlimit="10"/>
<path d="M22.09 271.179C33.8956 271.179 43.466 261.609 43.466 249.803C43.466 237.997 33.8956 228.427 22.09 228.427C10.2844 228.427 0.714005 237.997 0.714005 249.803C0.714005 261.609 10.2844 271.179 22.09 271.179Z" stroke="white" stroke-miterlimit="10"/>
<path d="M184.147 32.275C184.147 32.275 179.644 34.612 179.431 44.473C179.218 54.334 188.665 58.903 194.622 58.797L194.1 57.259C194.1 57.259 183.954 56.14 181.321 47.532C178.687 38.924 184.426 33.079 184.426 33.079L184.147 32.275Z" fill="#3D2624"/>
<path d="M348.179 204.351C348.179 204.351 346.118 219.937 318.779 225.888C291.44 231.839 263.243 216.253 263.243 216.253L267.844 215.797C267.844 215.797 283.788 225.038 302.917 223.905C322.046 222.771 332.879 211.153 332.879 211.153L348.179 204.351Z" fill="#3D2624"/>
<path d="M354.919 128.97C356.619 109.7 329.981 89.863 298.242 84.755C266.503 79.647 268.794 45.796 268.794 45.796L205.384 82.282C205.384 82.282 202.457 112.534 181.322 129.537C160.187 146.54 156.549 186.781 166.467 202.651C176.385 218.521 193.955 219.654 221.302 217.954C248.649 216.254 261.325 217.673 291.724 220.221C322.123 222.769 343.798 229.677 362.258 195.991C380.718 162.306 354.919 128.97 354.919 128.97ZM352.368 127.411C352.368 127.411 349.109 117.918 336.64 108.141C324.171 98.364 314.252 92.98 314.252 92.98C353.076 105.166 353.501 127.412 353.501 127.412H352.368V127.411Z" fill="#3D2624"/>
<path d="M183.527 111.798C183.527 111.798 174.543 119.902 168.167 136.905C161.791 153.908 148.33 206.618 148.33 206.618L170.09 220.186L191.121 162.693L183.527 111.798Z" fill="#C56E5D"/>
<path d="M270.229 193.541C266.919 203.333 267.733 214.046 272.511 223.217L273.679 228.263V228.274L276.882 242.062C254.962 261.089 224.515 267.506 205.788 263.371C187.05 259.236 182.283 243.905 182.283 243.905L185.176 223.646L180.216 178.575C180.216 178.575 176.338 172.651 174.688 159.012C173.027 145.363 183.526 111.798 183.526 111.798L217.637 98.16L242.513 96.039L284.006 111.798L289.373 125.243C289.18 132.678 283.706 151.801 277.985 169.875C275.275 178.457 272.511 186.803 270.229 193.541Z" fill="#F7DBC6"/>
<path d="M242.749 98.256C238.851 105.356 224.936 114.269 219.317 112.32C213.698 110.371 218.252 100.347 218.252 100.347C218.304 98.924 218.356 97.612 218.395 96.404C218.655 88.388 218.603 85.003 218.603 85.003L242.749 69.022C242.184 71.939 241.904 75.271 241.807 78.623C241.515 88.375 242.749 98.256 242.749 98.256Z" fill="#C56E5D"/>
<path d="M242.749 69.023C242.184 71.94 241.904 75.272 241.807 78.624C239.04 82.775 234.427 88.998 229.633 92.409C224.683 95.936 220.629 96.469 218.395 96.404C218.655 88.388 218.603 85.003 218.603 85.003L242.749 69.023Z" fill="#AF5448"/>
<path d="M192.36 60.533C192.36 60.533 193.195 80.3 207.116 89.209C221.037 98.118 240.525 79.465 243.866 69.164C247.207 58.863 246.093 36.59 246.093 36.59C246.093 36.59 227.718 24.34 213.798 24.34C199.878 24.34 192.36 31.3 192.36 31.3C192.36 31.3 192.36 50.232 192.36 60.533Z" fill="#C56E5D"/>
<path d="M208.225 24.729C208.225 24.729 207.811 31.996 221.175 40.487C234.539 48.978 241.785 50.718 241.785 50.718L244.615 66.329C244.615 66.329 242.671 71.228 242.127 73.009C241.533 74.953 241.765 81.134 241.765 81.134C241.765 81.134 253.053 79.461 256.95 69.022C256.95 69.022 268.504 60.393 268.921 44.802C269.339 29.211 261.265 24.339 261.265 24.339C261.265 24.339 259.187 5.68601 238.58 2.48401C217.973 -0.717987 201.547 10.836 201.547 10.836C201.547 10.836 191.524 9.44401 186.095 16.543C180.666 23.642 184.146 32.273 184.146 32.273C184.146 32.273 179.413 36.867 182.197 44.384C184.981 51.901 192.359 52.875 192.359 52.875C192.359 52.875 193.055 40.068 196.814 33.665C200.573 27.263 208.225 24.729 208.225 24.729Z" fill="#3D2624"/>
<path d="M242.752 53.016C242.752 53.016 245.397 46.473 250.826 45.777C256.255 45.081 256.673 54.686 252.914 61.09C249.155 67.493 243.866 66.241 243.866 66.241L242.752 53.016Z" fill="#C56E5D"/>
<path d="M240.107 45.742C240.107 45.742 243.726 56.636 241.638 65.266C241.638 65.266 242.225 64.687 242.992 63.569C244.739 61.024 245.466 51.346 246.249 48.028L240.107 45.742Z" fill="#3D2624"/>
<path d="M201.269 11.812C201.269 11.812 205.816 5.223 214.447 2.532C223.078 -0.159 230.316 2.532 230.316 2.532L231.708 2.43901C231.708 2.43901 223.634 -1.438 214.539 1.336C205.444 4.11 199.134 11.256 199.134 11.256L201.269 11.812Z" fill="#3D2624"/>
<path d="M261.266 24.34C261.266 24.34 266.077 25.268 268.938 30.465C271.799 35.662 268.846 40.938 268.846 40.938L268.366 40.302C268.366 40.302 270.668 35.824 267.809 30.929C264.95 26.034 261.266 26.289 261.266 26.289V24.34Z" fill="#3D2624"/>
<path d="M194.1 49.566C194.1 49.566 194.677 48.248 198.795 48.331C202.913 48.413 205.384 50.719 205.384 50.719C205.384 50.719 203.49 47.178 199.742 46.683C195.994 46.189 194.182 48.99 194.1 49.566Z" fill="#3D2624"/>
<path d="M208.225 24.729C208.225 24.729 207.579 31.857 211.755 37.611C215.931 43.365 228.274 43.365 228.274 43.365L228.769 44.472C228.769 44.472 216.581 44.571 211.662 40.209C206.743 35.847 206.187 28.552 207.115 24.729H208.225Z" fill="#3D2624"/>
<path d="M216.51 50.022C216.51 50.022 217.176 48.5 221.932 48.595C226.688 48.69 229.541 51.353 229.541 51.353C229.541 51.353 227.353 47.263 223.026 46.692C218.698 46.122 216.605 49.356 216.51 50.022Z" fill="#3D2624"/>
<path d="M205.383 68.746C205.383 68.746 206.009 69.372 208.376 70.068C210.743 70.764 212.413 70.068 212.413 70.068C212.413 70.068 211.699 68.746 209.863 68.467C208.028 68.189 205.383 68.746 205.383 68.746Z" fill="#913D37"/>
<path d="M205.383 50.719C205.383 50.719 206.698 52.111 207.185 55.73C207.672 59.349 207.185 62.203 207.185 62.203C207.185 62.203 205.53 52.738 205.383 50.719Z" fill="#AF5448"/>
<path d="M194.622 54.756C194.622 54.756 196.641 55.626 199.181 55.904C201.721 56.182 204.854 55.382 204.854 55.382C204.854 55.382 203.688 52.249 200.991 51.519C196.745 50.371 194.622 54.756 194.622 54.756Z" fill="#AF5448"/>
<path d="M216.51 55.269C216.51 55.269 216.929 52.057 221.036 51.354C225.142 50.65 230.015 54.966 230.015 54.966C230.015 54.966 221.939 58.818 216.51 55.269Z" fill="#AF5448"/>
<path d="M199.854 55.87C197.116 55.824 194.622 54.756 194.622 54.756L194.1 55.104C193.76 55.331 192.998 55.429 192.998 55.429C193.734 55.75 194.497 55.731 194.963 55.674C195.911 56.216 197.589 56.955 199.738 56.984C203.149 57.03 204.854 55.847 204.854 55.847V55.383C204.854 55.383 202.592 55.916 199.854 55.87Z" fill="#3D2624"/>
<path d="M230.015 54.965C230.015 54.965 226.71 55.97 223.288 56.064C219.865 56.157 216.701 55.151 216.701 55.151L216.064 55.548C215.649 55.806 214.701 55.95 214.701 55.95C215.635 56.253 216.587 56.194 217.167 56.108C218.376 56.635 220.505 57.333 223.191 57.253C227.455 57.126 228.77 56.113 229.696 55.505C229.827 55.418 230.015 54.965 230.015 54.965Z" fill="#3D2624"/>
<path d="M205.383 75.057C205.383 75.057 206.087 75.382 208.898 75.939C211.709 76.496 218.395 75.057 218.395 75.057C218.395 75.057 213.461 74.222 211.889 74.315C210.317 74.408 209.25 75.187 209.25 75.187C209.25 75.187 207.812 74.036 206.93 74.036C206.048 74.036 204.424 74.546 204.424 74.546L205.383 75.057Z" fill="#913D37"/>
<path d="M206.393 78.033C206.393 78.033 208.307 79.332 211.091 79.425C213.875 79.518 216.891 78.358 216.891 78.358C216.891 78.358 215.215 80.764 211.642 81.135C208.069 81.506 206.393 78.033 206.393 78.033Z" fill="#AF5448"/>
<path d="M172.215 256.177L184.198 230.527C184.198 230.527 192.165 238.924 216.51 239.775C240.855 240.625 273.679 228.276 273.679 228.276C273.679 228.276 282.087 249.977 282.087 258.053C282.087 266.13 234.053 298.011 234.053 298.011L205.572 295.886L172.215 256.177Z" fill="#743F3D"/>
<path d="M170.85 298.011C170.85 298.011 162.981 301.074 160.285 302.33C160.285 302.33 148.529 303.534 143.81 304.925C139.091 306.316 137.899 312.643 136.742 319.475C135.584 326.307 126.782 335.474 124.051 340.23C121.32 344.986 122.624 350.637 123.001 351.808C123.378 352.978 121.821 356.968 123.78 359.438C125.738 361.908 126.879 360.636 127.974 360.025C129.069 359.414 129.402 357.24 129.402 357.24C129.402 357.24 132.441 356.648 133.578 355.765C134.715 354.882 133.548 354.87 136.357 353.965C139.166 353.06 140.612 352.336 142.179 351.185C143.746 350.034 152.611 334.646 158.261 329.726C163.91 324.805 174.081 323.079 174.081 323.079L170.85 298.011Z" fill="#C56E5D"/>
<path d="M324.877 325.639C305.685 330.479 264.007 333.881 226.654 336.093C188.17 338.374 154.278 339.386 154.278 339.386L148.575 321.285L143.517 305.237L255.378 283.059C255.378 283.059 252.333 259.899 276.703 247.422C276.703 247.422 349.247 247.997 366.823 268.4C384.388 288.802 365.404 315.443 324.877 325.639Z" fill="#743F3D"/>
<path d="M215.675 319.276C215.675 319.276 223.544 322.339 226.239 323.595C226.239 323.595 237.995 324.799 242.714 326.19C247.433 327.581 248.625 333.908 249.782 340.74C250.94 347.572 259.742 356.739 262.473 361.495C265.204 366.251 263.9 371.902 263.523 373.073C263.146 374.243 264.703 378.233 262.744 380.703C260.786 383.173 259.645 381.901 258.55 381.29C257.455 380.679 257.122 378.505 257.122 378.505C257.122 378.505 254.083 377.913 252.946 377.03C251.809 376.147 252.976 376.135 250.167 375.23C247.358 374.325 245.912 373.601 244.345 372.45C242.778 371.299 233.913 355.911 228.263 350.991C222.614 346.07 212.443 344.344 212.443 344.344L215.675 319.276Z" fill="#C56E5D"/>
<path d="M178.368 251.677C178.368 251.677 82.725 251.677 67.422 268.68C52.119 285.683 60.621 307.362 72.948 314.589C85.275 321.815 214.5 350.721 214.5 350.721L221.301 311.188L202.236 305.237L212.444 291.569L178.368 251.677Z" fill="#743F3D"/>
<path d="M178.085 255.361C178.085 255.361 198.044 280.071 208.893 287.411C208.893 287.411 186.587 285.116 178.085 255.361Z" fill="#5E3030"/>
<path d="M101.004 276.757C101.004 276.757 117.582 278.882 143.512 284.408C169.442 289.934 202.237 305.237 202.237 305.237C202.237 305.237 168.594 282.283 142.238 276.757C115.882 271.23 101.004 276.757 101.004 276.757Z" fill="#5E3030"/>
<path d="M193.489 299.659C193.489 299.659 270.611 276.642 302.917 271.386C302.917 271.386 234.607 291.918 202.237 305.237L193.489 299.659Z" fill="#5E3030"/>
<path d="M267.844 253.33C267.844 253.33 230.456 271.785 217.873 290.495C217.873 290.495 257.284 270.287 267.844 253.33Z" fill="#5E3030"/>
<path d="M170.09 220.186C170.09 220.186 163.74 204.737 148.849 204.597L89.721 244.712C88.581 244.121 86.582 243.299 83.495 242.725C78.169 241.734 67.642 241.858 64.917 241.363C63.603 241.124 63.529 241.78 64.091 242.647C63.223 242.287 61.84 243.256 60.773 244.831C59.095 247.308 54.884 251.924 54.884 254.508C54.884 257.092 59.467 259.693 62.191 259.817C62.191 259.817 52.902 262.17 51.168 265.514C49.434 268.858 54.017 268.363 55.503 267.619C56.989 266.876 66.526 264.275 66.526 264.275C66.526 264.275 57.113 269.477 56.865 273.069C56.617 276.661 59.837 274.555 62.81 273.069C65.783 271.583 71.108 268.858 71.108 268.858C71.108 268.858 63.429 274.431 64.791 276.908C66.153 279.385 72.47 273.729 77.548 271.417C82.626 269.105 86.464 268.765 90.749 267.1C96.745 264.771 99.909 259.753 99.909 259.753C110.478 255.821 155.753 238.217 170.09 220.186ZM70.491 253.871C66.28 255.357 61.449 253.871 60.83 253.128C60.211 252.385 64.917 248.05 64.917 244.706C64.917 244.183 64.851 243.778 64.743 243.456C65.435 244.179 66.407 244.908 67.384 245.325C69.995 246.44 75.692 247.052 77.179 247.922C78.665 248.793 74.702 252.385 70.491 253.871Z" fill="#C56E5D"/>
<path d="M364.837 169.353C364.837 169.353 370.221 185.795 366.537 198.049C362.853 210.302 348.754 213.066 348.754 213.066L351.021 210.232C351.021 210.232 364.907 207.894 365.686 188.836C366.38 171.905 364.837 169.353 364.837 169.353Z" fill="#3D2624"/>
<path d="M77.974 247.727C77.974 247.727 82.649 250.384 87.856 250.384C93.063 250.384 86.794 252.722 82.915 251.553C79.036 250.384 77.974 247.727 77.974 247.727Z" fill="#AF5448"/>
<path d="M94.379 256.975C94.379 256.975 91.191 257.081 86.728 259.419C82.265 261.757 79.927 267.708 78.758 266.752C77.589 265.796 80.777 256.656 94.379 256.975Z" fill="#AF5448"/>
<path d="M63.585 259.656C63.585 259.656 73.354 267.556 74.523 267.662C75.692 267.768 70.492 260.081 63.585 259.656Z" fill="#AF5448"/>
<path d="M183.742 174.888C183.742 174.888 188.563 172.363 203.256 172.363C217.949 172.363 242.404 178.102 242.404 178.102C242.404 178.102 197.286 178.332 183.742 174.888Z" fill="#EFC9B6"/>
<path d="M272.523 223.487L273.691 228.533V228.544L252.864 234.972C252.864 234.972 263.459 209.367 263.256 189.772C263.052 170.177 269.448 145.794 269.448 145.794L277.997 170.145C275.287 178.726 272.522 187.072 270.24 193.811C266.931 203.603 267.745 214.316 272.523 223.487Z" fill="#EFC9B6"/>
<path d="M380.118 284.317C379.036 280.709 370.347 276.668 370.347 276.668C373.047 277.053 378.034 275.35 378.514 272.811C378.995 270.272 375.716 264.953 374.528 262.207C373.773 260.461 372.594 259.252 371.674 259.444C372.387 258.698 372.437 258.039 371.102 258.029C368.333 258.009 358.012 255.929 352.595 255.911C350.411 255.904 348.727 256.114 347.485 256.366L307.875 200.667C305.685 187.054 302.663 152.596 299.09 137.33C294.414 117.351 284.002 111.797 284.002 111.797C284.002 111.797 271.09 119.476 268.937 134.354C266.784 149.232 285.746 215.797 285.746 215.797C292.48 234.734 327.941 264.997 332.878 270.651C332.878 270.651 335.473 275.107 340.931 278.511C344.832 280.944 348.54 281.993 353.099 285.209C357.658 288.425 362.812 295.158 364.612 292.977C366.412 290.797 359.904 283.892 359.904 283.892C359.904 283.892 364.63 287.56 367.274 289.573C369.918 291.586 372.69 294.254 373.115 290.679C373.54 287.104 365.259 280.242 365.259 280.242C365.259 280.242 374.145 284.572 375.467 285.578C376.789 286.586 381.199 287.925 380.118 284.317ZM363.3 269.283C359.439 267.039 356.213 262.773 357.835 262.194C359.457 261.615 365.169 262.074 367.942 261.464C368.979 261.236 370.07 260.701 370.885 260.119C370.719 260.415 370.579 260.801 370.481 261.314C369.859 264.6 373.677 269.735 372.93 270.35C372.184 270.965 367.161 271.527 363.3 269.283Z" fill="#C56E5D"/>
<path d="M356.583 262.729C356.583 262.729 351.908 265.386 346.701 265.386C341.494 265.386 347.763 267.724 351.642 266.555C355.521 265.386 356.583 262.729 356.583 262.729Z" fill="#AF5448"/>
<path d="M336.798 269.722C336.798 269.722 339.986 269.828 344.45 272.166C348.913 274.504 351.251 280.455 352.42 279.499C353.588 278.542 350.4 269.403 336.798 269.722Z" fill="#AF5448"/>
<path d="M366.396 275.127C366.396 275.127 356.627 283.026 355.458 283.133C354.289 283.239 359.488 275.552 366.396 275.127Z" fill="#AF5448"/>
<path d="M214.161 104.331C214.161 104.331 209.519 113.17 216.891 115.58C224.263 117.991 236.889 109.611 243.317 103.413C243.317 103.413 234.823 117.073 221.048 119.253C207.274 121.434 210.469 107.338 214.161 104.331Z" fill="#EFC9B6"/>
</svg>
